Coordinates
version=1
nRows=8
nColumns=40
inDegrees=yes

Units are S.I. units (second, meters, Newtons, ...)
Angles are in degrees.

endheader
time	pelvis_tilt	pelvis_list	pelvis_rotation	pelvis_tx	pelvis_ty	pelvis_tz	hip_flexion_r	hip_adduction_r	hip_rotation_r	knee_angle_r	knee_angle_r_beta	ankle_angle_r	subtalar_angle_r	mtp_angle_r	hip_flexion_l	hip_adduction_l	hip_rotation_l	knee_angle_l	knee_angle_l_beta	ankle_angle_l	subtalar_angle_l	mtp_angle_l	lumbar_extension	lumbar_bending	lumbar_rotation	arm_flex_r	arm_add_r	arm_rot_r	elbow_flex_r	pro_sup_r	wrist_flex_r	wrist_dev_r	arm_flex_l	arm_add_l	arm_rot_l	elbow_flex_l	pro_sup_l	wrist_flex_l	wrist_dev_l
      0.51000000	     -3.39651379	      1.59568155	      2.14922904	     -0.64820561	      0.95620033	      1.49020824	      4.35987681	     -0.48418817	    -16.27085415	    -14.71554722	     -0.25683475	      7.91686536	     -0.04004249	     -5.69449187	     26.88576502	      3.43794120	     13.30831216	    -43.36581771	     -0.75687630	      4.21199134	     16.24707813	     12.93046506	     -4.25677030	     -2.41980748	      2.15650461	      5.20895262	    -15.02763524	    -13.49225068	     23.76997810	     89.95437384	      0.00000000	      0.00000000	     -8.08040522	     13.09548143	      8.33718722	     16.22143800	     89.95437384	      0.00000000	      0.00000000
      0.52000000	     -3.65684930	      1.23787169	      1.93631064	     -0.63976723	      0.95519653	      1.49144460	      4.07405320	     -0.01197391	    -16.66102754	    -14.63701925	     -0.25546418	      8.22716652	     -0.06621411	     -5.77405861	     27.64544680	      3.80107769	     13.59504134	    -40.93560306	     -0.71446105	      4.16599957	     16.07427834	     12.92476651	     -3.91556491	     -2.06445092	      2.51160318	      5.71147895	    -15.20377576	    -13.24658171	     24.19279636	     89.95437384	      0.00000000	      0.00000000	     -8.52554931	     13.15458084	      8.50248822	     16.12085543	     89.95437384	      0.00000000	      0.00000000
      0.53000000	     -2.92345026	      2.04489135	      1.38029832	     -0.63086654	      0.95633751	      1.49210714	      2.55278118	     -0.89028675	    -16.68198733	    -14.37723767	     -0.25093013	      8.40807048	      0.96118608	     -6.75103407	     26.49347192	      2.78127899	     14.13846223	    -37.07208389	     -0.64702992	      2.87338639	     15.93866923	     13.16306221	     -4.84001994	     -2.95568873	      2.80024024	      6.46123165	    -15.48491057	    -11.46927852	     24.73053993	     89.95437384	      0.00000000	      0.00000000	     -8.66667879	     12.96098755	     10.92937289	     15.61905797	     89.95437384	      0.00000000	      0.00000000
      0.54000000	     -3.23968586	      1.61605002	      1.20965541	     -0.62246939	      0.95508192	      1.49312420	      2.30648651	     -0.33893324	    -17.03903833	    -14.26064187	     -0.24889515	      8.69370905	      0.99279486	     -6.84585504	     27.28233860	      3.23111170	     14.54156890	    -34.68815003	     -0.60542243	      2.86633683	     15.71478710	     13.18100434	     -4.46440987	     -2.51731384	      3.06454396	      7.00444419	    -15.62659334	    -11.24046647	     25.10267006	     89.95437384	      0.00000000	      0.00000000	     -9.06370448	     12.98323817	     10.97871066	     15.34098450	     89.95437384	      0.00000000	      0.00000000
      0.55000000	     -2.85861755	      2.10436719	      0.52973034	     -0.61383167	      0.95536255	      1.49413481	      1.26622001	     -0.85194220	    -16.72549695	    -14.07633156	     -0.24567833	      8.89310564	      1.59420924	     -7.40180521	     26.61000226	      2.70605436	     15.20651240	    -31.14462349	     -0.54357622	      1.48348612	     15.04960299	     13.37995229	     -4.94513252	     -3.07347334	      3.62348410	      7.63964767	    -15.90375484	     -9.88497122	     25.62845701	     89.95437384	      0.00000000	      0.00000000	     -9.17004634	     12.93974949	     11.91763273	     14.77075499	     89.95437384	      0.00000000	      0.00000000
      0.56000000	     -2.62098573	      2.17865390	      0.08650835	     -0.60513097	      0.95503854	      1.49485695	      0.44257128	     -0.99105654	    -17.09129586	    -14.06999075	     -0.24556766	      9.12975140	      2.46353277	     -8.26275916	     26.36090855	      2.60303224	     15.75184225	    -28.26198283	     -0.49326465	      0.92514063	     14.46078212	     13.15473247	     -5.24380865	     -3.17440385	      3.93652007	      8.30404769	    -16.10455919	     -9.02111697	     26.06896090	     89.95437384	      0.00000000	      0.00000000	     -9.54802445	     12.84039101	     12.93577436	     14.66577653	     89.95437384	      0.00000000	      0.00000000
      0.57000000	     -2.86352945	      1.90403073	     -0.29972439	     -0.59682042	      0.95382404	      1.49564513	      0.19203845	     -0.68188256	    -17.06900702	    -14.08426294	     -0.24581676	      9.27256188	      2.71063289	     -8.46559720	     26.87128912	      2.88889751	     16.02865485	    -25.85864366	     -0.45131847	      0.38846513	     13.68258516	     13.13536792	     -5.00094224	     -2.88145062	      4.33821005	      8.87110575	    -16.27017660	     -8.62614591	     26.45792084	     89.95437384	      0.00000000	      0.00000000	     -9.89866029	     12.78120501	     13.05538999	     14.46166587	     89.95437384	      0.00000000	      0.00000000
      0.58000000	     -2.99510736	      1.89743248	     -0.78049987	     -0.58842776	      0.95278362	      1.49625959	     -0.16861887	     -0.69892085	    -17.01156749	    -14.15023040	     -0.24696811	      9.50955210	      2.97745151	     -8.70057753	     27.16169111	      2.96778338	     16.67439643	    -23.43986133	     -0.40910276	     -0.31316979	     12.37189515	     13.05385841	     -4.88828003	     -2.87951166	      4.76289509	      9.46870917	    -16.44262879	     -8.06436367	     26.87572292	     89.95437384	      0.00000000	      0.00000000	    -10.17463698	     12.73936474	     13.22872138	     14.11151916	     89.95437384	      0.00000000	      0.00000000
